<mxfile host="app.diagrams.net">
  <diagram id="POSFlow1" name="POS Restaurant Flowchart">
    <mxGraphModel dx="1422" dy="832" grid="1" gridSize="10" guides="1" tooltips="1" connect="1" arrows="1" fold="1" page="1" pageScale="1" pageWidth="850" pageHeight="1100" math="0" shadow="0">
      <root>
        <mxCell id="0"/>
        <mxCell id="1" parent="0"/>
        <!-- Terminator: Start -->
        <mxCell id="2" value="Start: Power on POS terminal" style="ellipse;whiteSpace=wrap;html=1;" vertex="1" parent="1">
          <mxGeometry x="60" y="30" width="180" height="50" as="geometry"/>
        </mxCell>
        <!-- Preparation -->
        <mxCell id="3" value="Log in to POS system" style="shape=hexagon;whiteSpace=wrap;html=1;" vertex="1" parent="1">
          <mxGeometry x="60" y="100" width="180" height="50" as="geometry"/>
        </mxCell>
        <!-- Decision: Table available? -->
        <mxCell id="4" value="Is there an available table?" style="rhombus;whiteSpace=wrap;html=1;" vertex="1" parent="1">
          <mxGeometry x="60" y="170" width="180" height="60" as="geometry"/>
        </mxCell>
        <!-- Process: Customer Seated -->
        <mxCell id="5" value="Customer is seated" style="rounded=0;whiteSpace=wrap;html=1;" vertex="1" parent="1">
          <mxGeometry x="60" y="250" width="180" height="50" as="geometry"/>
        </mxCell>
        <!-- Process: Menu Provided -->
        <mxCell id="6" value="Menu is provided" style="rounded=0;whiteSpace=wrap;html=1;" vertex="1" parent="1">
          <mxGeometry x="60" y="310" width="180" height="50" as="geometry"/>
        </mxCell>
        <!-- Process: Customer Reviews Menu -->
        <mxCell id="7" value="Customer reviews menu" style="rounded=0;whiteSpace=wrap;html=1;" vertex="1" parent="1">
          <mxGeometry x="60" y="370" width="180" height="50" as="geometry"/>
        </mxCell>
        <!-- Process: Staff Takes Order & Enters to POS -->
        <mxCell id="8" value="Staff takes order & enters into POS" style="rounded=0;whiteSpace=wrap;html=1;" vertex="1" parent="1">
          <mxGeometry x="60" y="430" width="180" height="50" as="geometry"/>
        </mxCell>
        <!-- Process: POS sends order to kitchen -->
        <mxCell id="9" value="POS sends order to kitchen" style="rounded=0;whiteSpace=wrap;html=1;" vertex="1" parent="1">
          <mxGeometry x="60" y="490" width="180" height="50" as="geometry"/>
        </mxCell>
        <!-- Process: Kitchen prepares food -->
        <mxCell id="10" value="Kitchen prepares food" style="rounded=0;whiteSpace=wrap;html=1;" vertex="1" parent="1">
          <mxGeometry x="60" y="550" width="180" height="50" as="geometry"/>
        </mxCell>
        <!-- Process: Food served to customer -->
        <mxCell id="11" value="Food is served to customer" style="rounded=0;whiteSpace=wrap;html=1;" vertex="1" parent="1">
          <mxGeometry x="60" y="610" width="180" height="50" as="geometry"/>
        </mxCell>
        <!-- Decision: Request bill? -->
        <mxCell id="12" value="Does customer request bill?" style="rhombus;whiteSpace=wrap;html=1;" vertex="1" parent="1">
          <mxGeometry x="60" y="670" width="180" height="60" as="geometry"/>
        </mxCell>
        <!-- Process: Staff enters order as final in POS -->
        <mxCell id="13" value="Staff enters order as final in POS" style="rounded=0;whiteSpace=wrap;html=1;" vertex="1" parent="1">
          <mxGeometry x="60" y="740" width="180" height="50" as="geometry"/>
        </mxCell>
        <!-- Process: POS calculates total, taxes, discounts -->
        <mxCell id="14" value="POS calculates total, taxes, discounts" style="rounded=0;whiteSpace=wrap;html=1;" vertex="1" parent="1">
          <mxGeometry x="60" y="800" width="180" height="50" as="geometry"/>
        </mxCell>
        <!-- Input/Output: Bill printed and presented -->
        <mxCell id="15" value="Bill printed & presented to customer" style="shape=parallelogram;whiteSpace=wrap;html=1;" vertex="1" parent="1">
          <mxGeometry x="60" y="860" width="180" height="50" as="geometry"/>
        </mxCell>
        <!-- Decision: Payment successful? -->
        <mxCell id="16" value="Is payment successful?" style="rhombus;whiteSpace=wrap;html=1;" vertex="1" parent="1">
          <mxGeometry x="60" y="920" width="180" height="60" as="geometry"/>
        </mxCell>
        <!-- Process: POS records transaction & prints receipt -->
        <mxCell id="17" value="POS records transaction & prints receipt" style="rounded=0;whiteSpace=wrap;html=1;" vertex="1" parent="1">
          <mxGeometry x="60" y="990" width="180" height="50" as="geometry"/>
        </mxCell>
        <!-- Process: Update inventory, close table -->
        <mxCell id="18" value="Update inventory, close table" style="rounded=0;whiteSpace=wrap;html=1;" vertex="1" parent="1">
          <mxGeometry x="60" y="1050" width="180" height="50" as="geometry"/>
        </mxCell>
        <!-- Terminator: End -->
        <mxCell id="19" value="End: Customer leaves restaurant" style="ellipse;whiteSpace=wrap;html=1;" vertex="1" parent="1">
          <mxGeometry x="60" y="1120" width="180" height="50" as="geometry"/>
        </mxCell>
        <!-- Connectors (arrows) -->
        <mxCell id="20" style="edgeStyle=elbowEdgeStyle;endArrow=block;html=1;" edge="1" source="2" target="3" parent="1">
          <mxGeometry relative="1" as="geometry"/>
        </mxCell>
        <mxCell id="21" style="edgeStyle=elbowEdgeStyle;endArrow=block;html=1;" edge="1" source="3" target="4" parent="1">
          <mxGeometry relative="1" as="geometry"/>
        </mxCell>
        <mxCell id="22" style="edgeStyle=elbowEdgeStyle;endArrow=block;html=1;" edge="1" source="4" target="5" parent="1">
          <mxGeometry relative="1" as="geometry"/>
        </mxCell>
        <mxCell id="23" style="edgeStyle=elbowEdgeStyle;endArrow=block;html=1;" edge="1" source="5" target="6" parent="1">
          <mxGeometry relative="1" as="geometry"/>
        </mxCell>
        <mxCell id="24" style="edgeStyle=elbowEdgeStyle;endArrow=block;html=1;" edge="1" source="6" target="7" parent="1">
          <mxGeometry relative="1" as="geometry"/>
        </mxCell>
        <mxCell id="25" style="edgeStyle=elbowEdgeStyle;endArrow=block;html=1;" edge="1" source="7" target="8" parent="1">
          <mxGeometry relative="1" as="geometry"/>
        </mxCell>
        <mxCell id="26" style="edgeStyle=elbowEdgeStyle;endArrow=block;html=1;" edge="1" source="8" target="9" parent="1">
          <mxGeometry relative="1" as="geometry"/>
        </mxCell>
        <mxCell id="27" style="edgeStyle=elbowEdgeStyle;endArrow=block;html=1;" edge="1" source="9" target="10" parent="1">
          <mxGeometry relative="1" as="geometry"/>
        </mxCell>
        <mxCell id="28" style="edgeStyle=elbowEdgeStyle;endArrow=block;html=1;" edge="1" source="10" target="11" parent="1">
          <mxGeometry relative="1" as="geometry"/>
        </mxCell>
        <mxCell id="29" style="edgeStyle=elbowEdgeStyle;endArrow=block;html=1;" edge="1" source="11" target="12" parent="1">
          <mxGeometry relative="1" as="geometry"/>
        </mxCell>
        <mxCell id="30" style="edgeStyle=elbowEdgeStyle;endArrow=block;html=1;" edge="1" source="12" target="13" parent="1">
          <mxGeometry relative="1" as="geometry"/>
        </mxCell>
        <mxCell id="31" style="edgeStyle=elbowEdgeStyle;endArrow=block;html=1;" edge="1" source="13" target="14" parent="1">
          <mxGeometry relative="1" as="geometry"/>
        </mxCell>
        <mxCell id="32" style="edgeStyle=elbowEdgeStyle;endArrow=block;html=1;" edge="1" source="14" target="15" parent="1">
          <mxGeometry relative="1" as="geometry"/>
        </mxCell>
        <mxCell id="33" style="edgeStyle=elbowEdgeStyle;endArrow=block;html=1;" edge="1" source="15" target="16" parent="1">
          <mxGeometry relative="1" as="geometry"/>
        </mxCell>
        <mxCell id="34" style="edgeStyle=elbowEdgeStyle;endArrow=block;html=1;" edge="1" source="16" target="17" parent="1">
          <mxGeometry relative="1" as="geometry"/>
        </mxCell>
        <mxCell id="35" style="edgeStyle=elbowEdgeStyle;endArrow=block;html=1;" edge="1" source="17" target="18" parent="1">
          <mxGeometry relative="1" as="geometry"/>
        </mxCell>
        <mxCell id="36" style="edgeStyle=elbowEdgeStyle;endArrow=block;html=1;" edge="1" source="18" target="19" parent="1">
          <mxGeometry relative="1" as="geometry"/>
        </mxCell>
      </root>
    </mxGraphModel>
  </diagram>
</mxfile>
